<?xml version="1.0" encoding="UTF-8"?>
<svg version="1.1" xmlns="http://www.w3.org/2000/svg" width="75" height="83">
<path d="M0 0 C0.88134109 -0.00960754 1.76268219 -0.01921509 2.67073059 -0.02911377 C4.09575142 -0.03548859 4.09575142 -0.03548859 5.54956055 -0.04199219 C6.52990768 -0.04769226 7.51025482 -0.05339233 8.52030945 -0.05926514 C10.59572267 -0.06871323 12.67115088 -0.07524836 14.74658203 -0.07910156 C17.91359813 -0.08879775 21.07996264 -0.11981932 24.24682617 -0.15136719 C26.26440045 -0.1578984 28.28197936 -0.16314841 30.29956055 -0.16699219 C31.24350174 -0.17933899 32.18744293 -0.19168579 33.1599884 -0.20440674 C39.8264947 -0.18194727 44.01729327 0.98906113 49.2487793 5.34863281 C55.37810449 12.60704423 56.05248646 18.63319211 55.9597168 27.96582031 C55.6237793 31.16113281 55.6237793 31.16113281 53.6237793 33.16113281 C49.06822374 32.60557726 49.06822374 32.60557726 47.6237793 31.16113281 C47.27665783 27.85593275 46.95195379 24.55494915 46.7253418 21.23925781 C46.32323182 17.18837216 45.88112485 15.47903026 43.2331543 12.20800781 C38.73612864 8.68040086 34.48663748 8.98643202 29.01049805 8.95800781 C28.16332718 8.95230774 27.31615631 8.94660767 26.4433136 8.94073486 C24.65037279 8.93129079 22.85741466 8.92475323 21.06445312 8.92089844 C18.33196421 8.91120618 15.60023191 8.88018319 12.86791992 8.84863281 C11.12378375 8.84210103 9.37964221 8.83685125 7.63549805 8.83300781 C6.82279953 8.82066101 6.01010101 8.80831421 5.17277527 8.79559326 C0.26165554 8.81471778 -3.14124365 9.39917362 -7.3762207 12.16113281 C-10.62293402 17.4230475 -10.81482697 22.48141135 -11.06762695 28.58691406 C-11.3762207 31.16113281 -11.3762207 31.16113281 -13.3762207 33.16113281 C-17.93177626 32.60557726 -17.93177626 32.60557726 -19.3762207 31.16113281 C-20.20038018 22.03651001 -20.19799745 13.69605084 -14.3762207 6.16113281 C-10.10349578 2.13149508 -5.87627097 0.05179451 0 0 Z " fill="#FFFFFF" transform="translate(19.376220703125,49.8388671875)"/>
<path d="M0 0 C4.46341087 3.02306065 7.39332313 7.3440319 9.08203125 12.41015625 C9.80051803 19.33842158 9.82735269 25.01258788 5.55078125 30.7265625 C0.84202253 36.12410242 -3.07231748 38.32338864 -10.109375 39.31640625 C-16.2996521 39.52303581 -20.99935093 37.39845364 -25.79296875 33.59765625 C-30.56925706 29.04300544 -32.09088808 25.11660041 -32.35546875 18.53515625 C-32.17446706 12.18435777 -30.83129159 7.60990128 -26.52734375 2.8828125 C-18.88794095 -4.05296109 -8.9738482 -4.38476996 0 0 Z M-19.91796875 8.41015625 C-22.81229548 11.67555051 -23.82289266 13.63596525 -24.35546875 17.97265625 C-23.7361279 22.83890577 -22.05975333 25.16762597 -18.79296875 28.72265625 C-14.77246635 31.08251635 -11.4658835 31.45788405 -6.91796875 30.41015625 C-2.99648501 28.08496422 -0.37000446 25.76626339 1.08203125 21.41015625 C1.47018755 17.29569945 1.32284367 14.91104608 -0.48046875 11.16015625 C-3.52490567 7.7254069 -5.58648869 6.82773154 -9.91796875 5.41015625 C-13.74215259 5.41015625 -16.68352774 6.45478964 -19.91796875 8.41015625 Z " fill="#FFFFFF" transform="translate(48.91796875,2.58984375)"/>
</svg>
